<mxfile host="app.diagrams.net" agent="Mozilla/5.0 (Windows NT 10.0; Win64; x64) AppleWebKit/537.36 (KHTML, like Gecko) Chrome/135.0.0.0 Safari/537.36" version="26.0.10">
  <diagram name="Page-1" id="0RNBivGTKlphqfC0B3ij">
    <mxGraphModel dx="1674" dy="772" grid="1" gridSize="10" guides="1" tooltips="1" connect="1" arrows="1" fold="1" page="1" pageScale="1" pageWidth="850" pageHeight="1100" math="0" shadow="0">
      <root>
        <mxCell id="0" />
        <mxCell id="1" parent="0" />
        <mxCell id="d7i88gGkydMw6TiwRuhL-2" value="&lt;h4 class=&quot;&quot; data-end=&quot;328&quot; data-start=&quot;277&quot;&gt;&lt;strong data-end=&quot;296&quot; data-start=&quot;282&quot;&gt;User Table&lt;/strong&gt;&amp;nbsp;&lt;/h4&gt;&lt;h4 style=&quot;text-align: left;&quot; class=&quot;&quot; data-end=&quot;328&quot; data-start=&quot;277&quot;&gt;&lt;span style=&quot;background-color: transparent; color: light-dark(rgb(0, 0, 0), rgb(255, 255, 255));&quot;&gt;-&amp;nbsp;&lt;/span&gt;&lt;span style=&quot;background-color: transparent; color: light-dark(rgb(0, 0, 0), rgb(255, 255, 255)); font-weight: normal;&quot;&gt;id&lt;/span&gt;&lt;/h4&gt;&lt;h4 style=&quot;text-align: left;&quot; class=&quot;&quot; data-end=&quot;328&quot; data-start=&quot;277&quot;&gt;&lt;span style=&quot;background-color: transparent; color: light-dark(rgb(0, 0, 0), rgb(255, 255, 255)); font-weight: normal;&quot;&gt;- username&lt;/span&gt;&lt;/h4&gt;&lt;h4 style=&quot;text-align: left;&quot; class=&quot;&quot; data-end=&quot;328&quot; data-start=&quot;277&quot;&gt;&lt;span style=&quot;background-color: transparent; color: light-dark(rgb(0, 0, 0), rgb(255, 255, 255)); font-weight: normal;&quot;&gt;- password&lt;/span&gt;&lt;/h4&gt;" style="whiteSpace=wrap;html=1;aspect=fixed;" vertex="1" parent="1">
          <mxGeometry x="90" y="90" width="130" height="130" as="geometry" />
        </mxCell>
      </root>
    </mxGraphModel>
  </diagram>
</mxfile>
